HIERARCHY
ROOT Hips
{
	OFFSET 0.000000 0.000000 0.000000
	CHANNELS 6 Xposition Yposition Zposition Xrotation Yrotation Zrotation
	JOINT LeftUpLeg_virtual
	{
		OFFSET 0.000000 0.000000 0.000000
		CHANNELS 3 Xrotation Yrotation Zrotation
		JOINT LeftUpLeg
		{
			OFFSET 10.205400 -3.823500 0.155100
			CHANNELS 3 Xrotation Yrotation Zrotation
			JOINT LeftLeg
			{
				OFFSET 0.708757 -12.982077 0.567790
				CHANNELS 3 Xrotation Yrotation Zrotation
				JOINT LeftFoot
				{
					OFFSET -0.708756 -10.717838 -2.184338
					CHANNELS 3 Xrotation Yrotation Zrotation
					JOINT LeftToeBase
					{
						OFFSET 0.108149 -7.191104 7.560241
						CHANNELS 3 Xrotation Yrotation Zrotation
						JOINT LeftToe_End
						{
							OFFSET 0.070230 0.081724 4.490308
							CHANNELS 3 Xrotation Yrotation Zrotation
							End Site
							{
								OFFSET 0 0 0
							}
						}
					}
				}
			}
		}
	}
	JOINT RightUpLeg_virtual
	{
		OFFSET 0.000000 0.000000 0.000000
		CHANNELS 3 Xrotation Yrotation Zrotation
		JOINT RightUpLeg
		{
			OFFSET -10.205400 -3.823500 0.005500
			CHANNELS 3 Xrotation Yrotation Zrotation
			JOINT RightLeg
			{
				OFFSET -0.708756 -12.982134 0.610632
				CHANNELS 3 Xrotation Yrotation Zrotation
				JOINT RightFoot
				{
					OFFSET 0.708754 -10.717769 -1.945823
					CHANNELS 3 Xrotation Yrotation Zrotation
					JOINT RightToeBase
					{
						OFFSET -0.108140 -7.191069 7.372968
						CHANNELS 3 Xrotation Yrotation Zrotation
						JOINT RightToe_End
						{
							OFFSET -0.070227 0.081735 4.479403
							CHANNELS 3 Xrotation Yrotation Zrotation
							End Site
							{
								OFFSET 0 0 0
							}
						}
					}
				}
			}
		}
	}
	JOINT Spine_virtual
	{
		OFFSET 0.000000 0.000000 0.000000
		CHANNELS 3 Xrotation Yrotation Zrotation
		JOINT Spine
		{
			OFFSET 0.000000 6.876099 0.125700
			CHANNELS 3 Xrotation Yrotation Zrotation
			JOINT Spine1
			{
				OFFSET 0.000000 5.730043 0.104720
				CHANNELS 3 Xrotation Yrotation Zrotation
				JOINT Spine1_split
				{
					OFFSET 0.000000 5.730043 0.104720
					CHANNELS 3 Xrotation Yrotation Zrotation
					JOINT Spine2
					{
						OFFSET 0.000000 5.730043 0.104720
						CHANNELS 3 Xrotation Yrotation Zrotation
						JOINT Neck_virtual
						{
							OFFSET 0.000000 0.000000 0.000000
							CHANNELS 3 Xrotation Yrotation Zrotation
							JOINT Neck
							{
								OFFSET 0.000000 10.314075 0.188496
								CHANNELS 3 Xrotation Yrotation Zrotation
								JOINT Head
								{
									OFFSET 0.000000 7.643700 -2.377400
									CHANNELS 3 Xrotation Yrotation Zrotation
									JOINT HeadTop_End
									{
										OFFSET 0.000000 43.788605 -13.619600
										CHANNELS 3 Xrotation Yrotation Zrotation
										End Site
										{
											OFFSET 0 0 0
										}
									}
								}
							}
						}
						JOINT LeftShoulder_virtual
						{
							OFFSET 0.000000 0.000000 0.000000
							CHANNELS 3 Xrotation Yrotation Zrotation
							JOINT LeftShoulder
							{
								OFFSET 2.196100 4.412489 0.087492
								CHANNELS 3 Xrotation Yrotation Zrotation
								JOINT LeftShoulder_split
								{
									OFFSET 2.196100 4.412489 0.087492
									CHANNELS 3 Xrotation Yrotation Zrotation
									JOINT LeftArm
									{
										OFFSET 8.771219 -2.981674 -0.026999
										CHANNELS 3 Xrotation Yrotation Zrotation
										JOINT LeftForeArm
										{
											OFFSET 8.512804 0.000000 -0.000000
											CHANNELS 3 Xrotation Yrotation Zrotation
											JOINT LeftHand
											{
												OFFSET 18.484802 0.000000 -0.000000
												CHANNELS 3 Xrotation Yrotation Zrotation
												End Site
												{
													OFFSET 0 0 0
												}
											}
										}
									}
								}
							}
						}
						JOINT RightShoulder_virtual
						{
							OFFSET 0.000000 0.000000 0.000000
							CHANNELS 3 Xrotation Yrotation Zrotation
							JOINT RightShoulder
							{
								OFFSET -2.196100 4.412496 0.070690
								CHANNELS 3 Xrotation Yrotation Zrotation
								JOINT RightShoulder_split
								{
									OFFSET -2.196100 4.412496 0.070690
									CHANNELS 3 Xrotation Yrotation Zrotation
									JOINT RightArm
									{
										OFFSET -8.771282 -2.981682 -0.094208
										CHANNELS 3 Xrotation Yrotation Zrotation
										JOINT RightForeArm
										{
											OFFSET -8.494598 0.000000 0.000000
											CHANNELS 3 Xrotation Yrotation Zrotation
											JOINT RightHand
											{
												OFFSET -18.483803 0.000000 0.000001
												CHANNELS 3 Xrotation Yrotation Zrotation
												End Site
												{
													OFFSET 0 0 0
												}
											}
										}
									}
								}
							}
						}
					}
				}
			}
		}
	}
}
MOTION
Frames: 9
Frame Time: 0.03333333
7.781347 30.657639 -9.022358 0.000000 0.000000 0.000000 155.600657 -42.158359 163.772937 -13.691626 29.268757 22.495494 30.233696 18.077914 -2.631657 -20.185972 19.740643 -37.190274 -0.049382 -0.025678 0.982113 0.000000 0.000000 0.000000 156.258691 -39.069713 163.981272 -56.495223 15.542258 9.958011 26.505830 -0.334483 -2.075682 0.553010 -3.221710 9.489742 4.779117 0.695535 -1.362487 0.000000 0.000000 0.000000 157.585537 -41.497931 164.393282 35.588240 0.287203 9.391801 -9.449378 -2.481303 2.306330 0.730316 1.772462 0.540756 0.000000 0.000000 0.000000 -9.499092 -2.056819 2.126464 -10.200657 -0.221674 -8.812265 -19.708072 -12.528480 7.498168 0.000000 0.000000 0.000000 -10.064741 -1.862712 1.994601 6.928572 -14.935735 25.604368 3.857711 1.324598 2.066330 -69.545225 -1.910717 -45.615237 -1.645160 -60.702855 4.752273 0.000000 0.000000 0.000000 -9.639030 -1.563554 2.359486 5.985396 4.373809 -2.209741 -2.753644 0.855372 2.294240 -0.370583 5.664667 68.023452 14.308170 25.868653 -3.833150 0.000000 0.000000 0.000000 
7.705625 30.789623 -9.111582 0.000000 0.000000 0.000000 155.872744 -42.370262 164.118504 -12.457946 29.349432 21.681853 29.007875 18.250028 -2.453533 -19.680683 19.624739 -37.107516 0.017369 -0.012852 0.887697 0.000000 0.000000 0.000000 156.483705 -39.335978 164.265776 -55.520460 15.429134 9.713787 25.912510 -0.333053 -2.188768 0.293059 -3.020186 9.333148 4.657379 0.762019 -1.300141 0.000000 0.000000 0.000000 157.829430 -41.731452 164.739587 35.332651 0.278140 9.327981 -9.389464 -2.491452 2.421565 0.675986 1.857800 0.534572 0.000000 0.000000 0.000000 -9.372130 -2.076654 2.213240 -11.014472 -3.475772 -7.623763 -17.505925 -16.204916 8.329525 0.000000 0.000000 0.000000 -9.952070 -1.898946 2.106142 6.602880 -14.352288 24.765033 3.885855 1.348183 2.392471 -69.371171 -1.330839 -45.834616 -1.563227 -60.168530 4.797863 0.000000 0.000000 0.000000 -9.468516 -1.584402 2.433218 5.858825 3.761594 -2.454795 -2.953823 0.940500 2.265713 -0.209813 6.128699 68.353815 14.033084 25.940254 -3.586055 0.000000 0.000000 0.000000 
7.633069 30.916203 -9.192225 0.000000 0.000000 0.000000 156.127182 -42.565394 164.453607 -11.294660 29.424178 20.869230 27.853588 18.406713 -2.282982 -19.187379 19.512416 -37.067809 0.069165 0.000657 0.816036 0.000000 0.000000 0.000000 156.691971 -39.566661 164.541853 -54.605341 15.295602 9.448227 25.339305 -0.298061 -2.302688 0.089622 -2.812899 9.206300 4.527788 0.822412 -1.234032 0.000000 0.000000 0.000000 158.038638 -41.922376 165.082667 35.103873 0.311564 9.263646 -9.346258 -2.475894 2.493333 0.690000 1.901643 0.509648 0.000000 0.000000 0.000000 -9.247213 -2.076486 2.264928 -11.710995 -6.332925 -6.817649 -15.634499 -19.010810 8.823214 0.000000 0.000000 0.000000 -9.858989 -1.910441 2.181782 6.323638 -13.919102 23.870429 3.935120 1.485515 2.748430 -69.236364 -0.822410 -46.031753 -1.715991 -59.573081 4.584955 0.000000 0.000000 0.000000 -9.318218 -1.590028 2.461486 5.737647 3.173786 -2.639964 -3.119615 0.958574 2.289851 -0.133658 6.576994 68.701717 13.782183 26.105726 -3.349663 0.000000 0.000000 0.000000 
7.562546 31.034325 -9.256771 0.000000 0.000000 0.000000 156.360256 -42.749123 164.783095 -10.222317 29.482389 20.074534 26.794947 18.552431 -2.131291 -18.698119 19.402264 -37.057099 0.107648 0.015017 0.762402 0.000000 0.000000 0.000000 156.879009 -39.773073 164.813885 -53.768052 15.107938 9.143850 24.843676 -0.234096 -2.405780 -0.105711 -2.625016 9.075475 4.455802 0.871482 -1.159906 0.000000 0.000000 0.000000 158.211743 -42.087025 165.415475 34.887442 0.376084 9.207570 -9.309759 -2.440861 2.518725 0.739928 1.934189 0.510518 0.000000 0.000000 0.000000 -9.131246 -2.062580 2.279191 -12.309509 -8.693342 -6.408776 -14.132834 -20.848025 8.945685 0.000000 0.000000 0.000000 -9.786249 -1.902014 2.221872 6.084631 -13.572476 23.010648 3.937176 1.646416 3.049511 -69.130981 -0.517886 -46.187884 -2.056619 -59.095043 4.162158 0.000000 0.000000 0.000000 -9.193072 -1.586551 2.444730 5.620333 2.638798 -2.778178 -3.203485 0.975599 2.345079 -0.144163 6.992040 69.080656 13.588411 26.380916 -3.145980 0.000000 0.000000 0.000000 
7.495467 31.141447 -9.300930 0.000000 0.000000 0.000000 156.565735 -42.945846 165.108622 -9.236889 29.513545 19.293575 25.844531 18.697660 -2.003709 -18.228375 19.299263 -37.025274 0.142669 0.029780 0.717440 0.000000 0.000000 0.000000 157.041144 -39.975506 165.083364 -53.019016 14.849221 8.781114 24.491942 -0.144585 -2.495956 -0.321092 -2.476729 8.909961 4.456432 0.906661 -1.075547 0.000000 0.000000 0.000000 158.350491 -42.244351 165.727218 34.665416 0.451310 9.170238 -9.273091 -2.396388 2.507057 0.801747 1.969151 0.518583 0.000000 0.000000 0.000000 -9.035193 -2.038890 2.263587 -12.821314 -10.512352 -6.352578 -12.987912 -21.832708 8.774110 0.000000 0.000000 0.000000 -9.728357 -1.878959 2.237752 5.886661 -13.267441 22.267011 3.836585 1.772365 3.223307 -69.018064 -0.460771 -46.275638 -2.557882 -58.795225 3.573082 0.000000 0.000000 0.000000 -9.096726 -1.581567 2.397350 5.510230 2.158356 -2.881445 -3.225580 0.999682 2.393164 -0.206261 7.377280 69.503554 13.450425 26.709829 -2.975785 0.000000 0.000000 0.000000 
7.431717 31.236057 -9.322323 0.000000 0.000000 0.000000 156.745547 -43.180999 165.436034 -8.324594 29.508777 18.525109 24.999597 18.843799 -1.896067 -17.798607 19.210672 -36.931178 0.190516 0.045649 0.666234 0.000000 0.000000 0.000000 157.178185 -40.205594 165.352924 -52.352973 14.518380 8.351283 24.313940 -0.036130 -2.576611 -0.555594 -2.378039 8.708769 4.483813 0.925105 -0.983010 0.000000 0.000000 0.000000 158.467151 -42.425843 166.020384 34.437834 0.516035 9.151858 -9.237231 -2.355775 2.474470 0.776658 2.031560 0.532605 0.000000 0.000000 0.000000 -8.962870 -2.018277 2.234839 -13.261428 -11.851356 -6.549887 -12.114697 -22.125474 8.445335 0.000000 0.000000 0.000000 -9.685732 -1.850139 2.244184 5.724967 -12.956855 21.674746 3.671418 1.851898 3.217414 -68.842426 -0.606530 -46.285808 -3.197453 -58.594321 2.847964 0.000000 0.000000 0.000000 -9.021491 -1.582943 2.339305 5.411875 1.742155 -2.966115 -3.227868 1.000191 2.410949 -0.273070 7.725848 69.943726 13.345114 26.994543 -2.826740 0.000000 0.000000 0.000000 
7.376534 31.317009 -9.325773 0.000000 0.000000 0.000000 156.915946 -43.465343 165.785125 -7.462079 29.450164 17.771348 24.243721 18.967029 -1.796279 -17.423432 19.126015 -36.765481 0.232203 0.063646 0.610025 0.000000 0.000000 0.000000 157.302084 -40.502479 165.647974 -51.756930 14.133842 7.850684 24.292866 0.094325 -2.656254 -0.805308 -2.324497 8.498060 4.472149 0.925094 -0.886494 0.000000 0.000000 0.000000 158.573852 -42.661614 166.305558 34.215966 0.550477 9.140911 -9.197190 -2.323456 2.435294 0.715930 2.068742 0.543640 0.000000 0.000000 0.000000 -8.929031 -2.001095 2.205192 -13.639826 -12.799709 -6.877449 -11.421338 -21.977363 8.116465 0.000000 0.000000 0.000000 -9.654210 -1.826425 2.243558 5.597279 -12.621720 21.256503 3.462872 1.880369 3.076528 -68.595043 -0.907388 -46.229668 -3.920833 -58.313751 2.053643 0.000000 0.000000 0.000000 -8.955823 -1.590143 2.285341 5.335074 1.400947 -3.035238 -3.282697 0.908261 2.342725 -0.296669 8.041700 70.362430 13.246834 27.169774 -2.684347 0.000000 0.000000 0.000000 
7.332542 31.385288 -9.320011 0.000000 0.000000 0.000000 157.090868 -43.818249 166.160416 -6.657666 29.323699 17.060211 23.567358 19.032104 -1.696202 -17.099679 19.022405 -36.547710 0.267427 0.083373 0.550252 0.000000 0.000000 0.000000 157.422036 -40.903356 165.964813 -51.208899 13.710271 7.293874 24.382947 0.236627 -2.745640 -1.084768 -2.308189 8.279929 4.405925 0.908064 -0.787801 0.000000 0.000000 0.000000 158.682534 -42.980598 166.591538 34.016774 0.546468 9.121115 -9.154951 -2.299376 2.396384 0.639575 2.082181 0.505331 0.000000 0.000000 0.000000 -8.927511 -1.988273 2.184389 -13.967071 -13.489013 -7.244684 -10.842347 -21.635849 7.888891 0.000000 0.000000 0.000000 -9.632590 -1.802641 2.242426 5.502519 -12.286815 20.974089 3.273313 1.866457 2.901989 -68.297459 -1.271705 -46.162506 -4.648234 -57.870670 1.268824 0.000000 0.000000 0.000000 -8.892121 -1.597078 2.245990 5.289495 1.146874 -3.082670 -3.414160 0.746900 2.221434 -0.199261 8.329328 70.737278 13.150333 27.240166 -2.553183 0.000000 0.000000 0.000000 
7.304457 31.439747 -9.306850 0.000000 0.000000 0.000000 157.280747 -44.260838 166.560119 -5.934234 29.122817 16.433259 22.995423 19.001453 -1.599383 -16.840024 18.874823 -36.302708 0.294778 0.105105 0.492380 0.000000 0.000000 0.000000 157.548231 -41.446677 166.308385 -50.690020 13.262012 6.698817 24.554504 0.370755 -2.845403 -1.415649 -2.322398 8.041884 4.318159 0.880125 -0.691940 0.000000 0.000000 0.000000 158.809207 -43.414158 166.893801 33.856790 0.507927 9.077671 -9.110465 -2.273720 2.359642 0.602827 2.086719 0.459112 0.000000 0.000000 0.000000 -8.950436 -1.972152 2.169481 -14.249854 -14.048706 -7.591803 -10.303037 -21.305614 7.798618 0.000000 0.000000 0.000000 -9.623095 -1.775549 2.231841 5.419000 -11.949882 20.747931 3.132258 1.750551 2.771625 -68.012251 -1.662811 -46.145680 -5.272938 -57.389941 0.572742 0.000000 0.000000 0.000000 -8.826385 -1.588401 2.218537 5.274142 0.981628 -3.109020 -3.566314 0.577889 2.046811 0.048562 8.611632 71.044424 13.062709 27.227140 -2.453650 0.000000 0.000000 0.000000 
